<?xml version="1.0" standalone="no"?>
<!DOCTYPE svg PUBLIC "-//W3C//DTD SVG 20010904//EN"
 "http://www.w3.org/TR/2001/REC-SVG-20010904/DTD/svg10.dtd">
<svg version="1.0" xmlns="http://www.w3.org/2000/svg"
 width="300.000000pt" height="300.000000pt" viewBox="0 0 300.000000 300.000000"
 preserveAspectRatio="xMidYMid meet">
<metadata>
Created by potrace 1.10, written by Peter Selinger 2001-2011
</metadata>
<g transform="translate(0.000000,300.000000) scale(0.100000,-0.100000)"
fill="#000000" stroke="none">
<path d="M0 1500 l0 -1500 1500 0 1500 0 0 1500 0 1500 -1500 0 -1500 0 0
-1500z m2250 745 l745 -745 -748 -748 -747 -747 -747 747 -748 748 745 745
c410 410 747 745 750 745 3 0 340 -335 750 -745z"/>
<path d="M765 2230 l-730 -730 265 -265 c835 -836 1191 -1190 1198 -1193 4 -1
75 66 157 149 83 83 173 173 200 199 207 201 1100 1102 1100 1110 0 10 -1445
1460 -1455 1460 -3 0 -334 -329 -735 -730z m888 165 c288 -46 534 -200 682
-429 100 -155 151 -339 141 -506 -3 -52 -7 -104 -10 -115 -35 -165 -118 -325
-230 -443 -128 -134 -290 -232 -461 -278 -51 -14 -187 -34 -245 -36 -62 -3
-189 11 -250 27 -28 7 -51 13 -53 13 -1 1 -15 5 -30 11 -16 6 -32 11 -37 11
-19 0 -148 67 -215 112 -297 197 -456 553 -394 880 6 34 13 70 14 78 1 8 8 29
15 45 6 17 13 35 14 40 1 6 15 35 30 65 118 230 309 395 554 479 145 50 334
68 475 46z"/>
<path d="M1355 2370 c-230 -34 -458 -163 -600 -339 -270 -334 -254 -800 38
-1108 92 -96 170 -154 281 -208 378 -183 830 -111 1122 179 181 180 262 388
251 645 -9 234 -91 407 -273 581 -208 198 -522 294 -819 250z m435 -240 c151
-12 280 -23 285 -25 6 -1 34 -159 63 -350 l53 -348 -130 -131 c-108 -109 -131
-128 -135 -111 -2 11 -26 164 -52 340 -26 176 -50 323 -53 327 -3 3 -161 19
-351 34 -190 15 -347 29 -350 31 -2 2 56 63 128 136 l133 133 67 -7 c37 -4
191 -17 342 -29z m-487 -504 c147 -13 270 -26 273 -29 3 -3 29 -160 59 -349
l54 -343 -132 -133 -132 -132 -17 117 c-17 117 -27 177 -69 444 l-22 136 -101
7 c-55 3 -146 11 -201 16 -55 5 -169 15 -253 21 l-153 12 133 134 133 135 80
-7 c44 -4 200 -17 348 -29z"/>
<path d="M1283 2034 c-57 -58 -103 -109 -103 -113 0 -4 129 -17 288 -30 345
-27 360 -29 371 -50 5 -9 30 -156 56 -326 27 -171 50 -312 52 -315 2 -2 52 45
110 104 l106 108 -12 87 c-7 47 -15 104 -17 126 -3 22 -12 76 -20 120 -8 44
-17 98 -20 120 -2 22 -9 67 -15 100 -5 33 -11 71 -12 84 -1 13 -10 27 -22 32
-11 5 -121 16 -245 24 -124 9 -256 20 -295 25 -120 15 -110 20 -222 -96z"/>
<path d="M781 1533 c-56 -60 -101 -111 -101 -115 0 -5 21 -8 48 -8 26 0 76 -5
112 -10 36 -5 110 -12 165 -15 55 -4 111 -8 125 -10 14 -2 62 -6 107 -10 47
-4 87 -13 93 -20 14 -17 13 -10 64 -348 25 -159 47 -292 51 -295 3 -3 53 43
112 102 l105 109 -12 76 c-14 87 -12 71 -40 261 -13 80 -30 185 -39 235 l-16
90 -40 6 c-22 4 -78 10 -125 13 -131 9 -431 35 -472 41 -35 5 -39 2 -137 -102z"/>
</g>
</svg>
