<?xml version="1.0" encoding="UTF-8"?>
<svg version="1.1" xmlns="http://www.w3.org/2000/svg" width="766" height="766">
<path d="M0 0 C252.78 0 505.56 0 766 0 C766 252.78 766 505.56 766 766 C513.22 766 260.44 766 0 766 C0 513.22 0 260.44 0 0 Z " fill="#FEFEFE" transform="translate(0,0)"/>
<path d="M0 0 C4.32449267 1.66209441 7.21783136 4.94365734 10.41117477 8.16507912 C11.05568378 8.80728043 11.70019278 9.44948175 12.36423236 10.11114371 C14.5373796 12.27896852 16.70327981 14.45389403 18.86932373 16.6288147 C20.43564821 18.19426758 22.0024119 19.75928111 23.56957841 21.32389104 C27.88624927 25.63607556 32.19663519 29.95449567 36.50605559 34.27392435 C40.6734447 38.44904321 44.84552056 42.61946977 49.01749795 46.79000302 C57.55304738 55.32292321 66.08392959 63.86049515 74.61217499 72.40071487 C83.05798374 80.85835183 91.50585211 89.31392271 99.95648956 97.76673508 C100.48164003 98.29202303 101.0067905 98.81731098 101.54785463 99.35851674 C104.21476644 102.02610521 106.8817152 104.69365675 109.54867819 107.36119406 C128.44579642 126.26251473 147.33827205 145.16846957 166.22802734 164.07714844 C184.58082406 182.4483096 202.93571715 200.81737208 221.29345703 219.18359375 C221.85917812 219.74957789 222.4248992 220.31556203 223.00776335 220.8986972 C228.68889455 226.58246541 234.37006845 232.26619093 240.05127363 237.94988519 C251.62486362 249.52854781 263.19816859 261.10749529 274.77130127 272.68661499 C275.30343241 273.21902071 275.83556355 273.75142643 276.38381988 274.29996566 C311.92732117 309.86187277 347.46415667 345.43044074 383 381 C381.33790559 385.32449267 378.05634266 388.21783136 374.83492088 391.41117477 C374.19271957 392.05568378 373.55051825 392.70019278 372.88885629 393.36423236 C370.72103148 395.5373796 368.54610597 397.70327981 366.3711853 399.86932373 C364.80573242 401.43564821 363.24071889 403.0024119 361.67610896 404.56957841 C357.36392444 408.88624927 353.04550433 413.19663519 348.72607565 417.50605559 C344.55095679 421.6734447 340.38053023 425.84552056 336.20999698 430.01749795 C327.67707679 438.55304738 319.13950485 447.08392959 310.59928513 455.61217499 C302.14164817 464.05798374 293.68607729 472.50585211 285.23326492 480.95648956 C284.70797697 481.48164003 284.18268902 482.0067905 283.64148326 482.54785463 C280.97389479 485.21476644 278.30634325 487.8817152 275.63880594 490.54867819 C256.73748527 509.44579642 237.83153043 528.33827205 218.92285156 547.22802734 C200.5516904 565.58082406 182.18262792 583.93571715 163.81640625 602.29345703 C163.25042211 602.85917812 162.68443797 603.4248992 162.1013028 604.00776335 C156.41753459 609.68889455 150.73380907 615.37006845 145.05011481 621.05127363 C133.47145219 632.62486362 121.89250471 644.19816859 110.31338501 655.77130127 C109.78097929 656.30343241 109.24857357 656.83556355 108.70003434 657.38381988 C73.13812723 692.92732117 37.56955926 728.46415667 2 764 C-2.32449267 762.33790559 -5.21783136 759.05634266 -8.41117477 755.83492088 C-9.05568378 755.19271957 -9.70019278 754.55051825 -10.36423236 753.88885629 C-12.5373796 751.72103148 -14.70327981 749.54610597 -16.86932373 747.3711853 C-18.43564821 745.80573242 -20.0024119 744.24071889 -21.56957841 742.67610896 C-25.88624927 738.36392444 -30.19663519 734.04550433 -34.50605559 729.72607565 C-38.6734447 725.55095679 -42.84552056 721.38053023 -47.01749795 717.20999698 C-55.55304738 708.67707679 -64.08392959 700.13950485 -72.61217499 691.59928513 C-81.05798374 683.14164817 -89.50585211 674.68607729 -97.95648956 666.23326492 C-98.48164003 665.70797697 -99.0067905 665.18268902 -99.54785463 664.64148326 C-102.21476644 661.97389479 -104.8817152 659.30634325 -107.54867819 656.63880594 C-126.44579642 637.73748527 -145.33827205 618.83153043 -164.22802734 599.92285156 C-182.58082406 581.5516904 -200.93571715 563.18262792 -219.29345703 544.81640625 C-219.85917812 544.25042211 -220.4248992 543.68443797 -221.00776335 543.1013028 C-226.68889455 537.41753459 -232.37006845 531.73380907 -238.05127363 526.05011481 C-249.62486362 514.47145219 -261.19816859 502.89250471 -272.77130127 491.31338501 C-273.30343241 490.78097929 -273.83556355 490.24857357 -274.38381988 489.70003434 C-309.92732117 454.13812723 -345.46415667 418.56955926 -381 383 C-379.33790559 378.67550733 -376.05634266 375.78216864 -372.83492088 372.58882523 C-372.19271957 371.94431622 -371.55051825 371.29980722 -370.88885629 370.63576764 C-368.72103148 368.4626204 -366.54610597 366.29672019 -364.3711853 364.13067627 C-362.80573242 362.56435179 -361.24071889 360.9975881 -359.67610896 359.43042159 C-355.36392444 355.11375073 -351.04550433 350.80336481 -346.72607565 346.49394441 C-342.55095679 342.3265553 -338.38053023 338.15447944 -334.20999698 333.98250205 C-325.67707679 325.44695262 -317.13950485 316.91607041 -308.59928513 308.38782501 C-300.14164817 299.94201626 -291.68607729 291.49414789 -283.23326492 283.04351044 C-282.70797697 282.51835997 -282.18268902 281.9932095 -281.64148326 281.45214537 C-278.97389479 278.78523356 -276.30634325 276.1182848 -273.63880594 273.45132181 C-254.73748527 254.55420358 -235.83153043 235.66172795 -216.92285156 216.77197266 C-198.5516904 198.41917594 -180.18262792 180.06428285 -161.81640625 161.70654297 C-161.25042211 161.14082188 -160.68443797 160.5751008 -160.1013028 159.99223665 C-154.41753459 154.31110545 -148.73380907 148.62993155 -143.05011481 142.94872637 C-131.47145219 131.37513638 -119.89250471 119.80183141 -108.31338501 108.22869873 C-107.78097929 107.69656759 -107.24857357 107.16443645 -106.70003434 106.61618012 C-71.13812723 71.07267883 -35.56955926 35.53584333 0 0 Z " fill="#FEFEFE" transform="translate(382,1)"/>
<path d="M0 0 C4.32449267 1.66209441 7.21783136 4.94365734 10.41117477 8.16507912 C11.05568378 8.80728043 11.70019278 9.44948175 12.36423236 10.11114371 C14.5373796 12.27896852 16.70327981 14.45389403 18.86932373 16.6288147 C20.43564821 18.19426758 22.0024119 19.75928111 23.56957841 21.32389104 C27.88624927 25.63607556 32.19663519 29.95449567 36.50605559 34.27392435 C40.6734447 38.44904321 44.84552056 42.61946977 49.01749795 46.79000302 C57.55304738 55.32292321 66.08392959 63.86049515 74.61217499 72.40071487 C83.05798374 80.85835183 91.50585211 89.31392271 99.95648956 97.76673508 C100.48164003 98.29202303 101.0067905 98.81731098 101.54785463 99.35851674 C104.21476644 102.02610521 106.8817152 104.69365675 109.54867819 107.36119406 C128.44579642 126.26251473 147.33827205 145.16846957 166.22802734 164.07714844 C184.58082406 182.4483096 202.93571715 200.81737208 221.29345703 219.18359375 C221.85917812 219.74957789 222.4248992 220.31556203 223.00776335 220.8986972 C228.68889455 226.58246541 234.37006845 232.26619093 240.05127363 237.94988519 C251.62486362 249.52854781 263.19816859 261.10749529 274.77130127 272.68661499 C275.30343241 273.21902071 275.83556355 273.75142643 276.38381988 274.29996566 C311.92732117 309.86187277 347.46415667 345.43044074 383 381 C381.33790559 385.32449267 378.05634266 388.21783136 374.83492088 391.41117477 C374.19271957 392.05568378 373.55051825 392.70019278 372.88885629 393.36423236 C370.72103148 395.5373796 368.54610597 397.70327981 366.3711853 399.86932373 C364.80573242 401.43564821 363.24071889 403.0024119 361.67610896 404.56957841 C357.36392444 408.88624927 353.04550433 413.19663519 348.72607565 417.50605559 C344.55095679 421.6734447 340.38053023 425.84552056 336.20999698 430.01749795 C327.67707679 438.55304738 319.13950485 447.08392959 310.59928513 455.61217499 C302.14164817 464.05798374 293.68607729 472.50585211 285.23326492 480.95648956 C284.70797697 481.48164003 284.18268902 482.0067905 283.64148326 482.54785463 C280.97389479 485.21476644 278.30634325 487.8817152 275.63880594 490.54867819 C256.73748527 509.44579642 237.83153043 528.33827205 218.92285156 547.22802734 C200.5516904 565.58082406 182.18262792 583.93571715 163.81640625 602.29345703 C163.25042211 602.85917812 162.68443797 603.4248992 162.1013028 604.00776335 C156.41753459 609.68889455 150.73380907 615.37006845 145.05011481 621.05127363 C133.47145219 632.62486362 121.89250471 644.19816859 110.31338501 655.77130127 C109.78097929 656.30343241 109.24857357 656.83556355 108.70003434 657.38381988 C73.13812723 692.92732117 37.56955926 728.46415667 2 764 C-2.32449267 762.33790559 -5.21783136 759.05634266 -8.41117477 755.83492088 C-9.05568378 755.19271957 -9.70019278 754.55051825 -10.36423236 753.88885629 C-12.5373796 751.72103148 -14.70327981 749.54610597 -16.86932373 747.3711853 C-18.43564821 745.80573242 -20.0024119 744.24071889 -21.56957841 742.67610896 C-25.88624927 738.36392444 -30.19663519 734.04550433 -34.50605559 729.72607565 C-38.6734447 725.55095679 -42.84552056 721.38053023 -47.01749795 717.20999698 C-55.55304738 708.67707679 -64.08392959 700.13950485 -72.61217499 691.59928513 C-81.05798374 683.14164817 -89.50585211 674.68607729 -97.95648956 666.23326492 C-98.48164003 665.70797697 -99.0067905 665.18268902 -99.54785463 664.64148326 C-102.21476644 661.97389479 -104.8817152 659.30634325 -107.54867819 656.63880594 C-126.44579642 637.73748527 -145.33827205 618.83153043 -164.22802734 599.92285156 C-182.58082406 581.5516904 -200.93571715 563.18262792 -219.29345703 544.81640625 C-219.85917812 544.25042211 -220.4248992 543.68443797 -221.00776335 543.1013028 C-226.68889455 537.41753459 -232.37006845 531.73380907 -238.05127363 526.05011481 C-249.62486362 514.47145219 -261.19816859 502.89250471 -272.77130127 491.31338501 C-273.30343241 490.78097929 -273.83556355 490.24857357 -274.38381988 489.70003434 C-309.92732117 454.13812723 -345.46415667 418.56955926 -381 383 C-379.33790559 378.67550733 -376.05634266 375.78216864 -372.83492088 372.58882523 C-372.19271957 371.94431622 -371.55051825 371.29980722 -370.88885629 370.63576764 C-368.72103148 368.4626204 -366.54610597 366.29672019 -364.3711853 364.13067627 C-362.80573242 362.56435179 -361.24071889 360.9975881 -359.67610896 359.43042159 C-355.36392444 355.11375073 -351.04550433 350.80336481 -346.72607565 346.49394441 C-342.55095679 342.3265553 -338.38053023 338.15447944 -334.20999698 333.98250205 C-325.67707679 325.44695262 -317.13950485 316.91607041 -308.59928513 308.38782501 C-300.14164817 299.94201626 -291.68607729 291.49414789 -283.23326492 283.04351044 C-282.70797697 282.51835997 -282.18268902 281.9932095 -281.64148326 281.45214537 C-278.97389479 278.78523356 -276.30634325 276.1182848 -273.63880594 273.45132181 C-254.73748527 254.55420358 -235.83153043 235.66172795 -216.92285156 216.77197266 C-198.5516904 198.41917594 -180.18262792 180.06428285 -161.81640625 161.70654297 C-161.25042211 161.14082188 -160.68443797 160.5751008 -160.1013028 159.99223665 C-154.41753459 154.31110545 -148.73380907 148.62993155 -143.05011481 142.94872637 C-131.47145219 131.37513638 -119.89250471 119.80183141 -108.31338501 108.22869873 C-107.78097929 107.69656759 -107.24857357 107.16443645 -106.70003434 106.61618012 C-71.13812723 71.07267883 -35.56955926 35.53584333 0 0 Z M-154 211 C-154.92039062 211.73734375 -155.84078125 212.4746875 -156.7890625 213.234375 C-171.48446703 225.16958705 -184.8573314 238.68857078 -196 254 C-196.59296875 254.78632813 -197.1859375 255.57265625 -197.796875 256.3828125 C-199.61902096 258.87307864 -201.31891337 261.41187677 -203 264 C-203.42361816 264.65081543 -203.84723633 265.30163086 -204.28369141 265.97216797 C-224.23971075 296.97759219 -238.11636753 334.07076866 -238.16796875 371.3203125 C-238.17129715 372.18204071 -238.17462555 373.04376892 -238.17805481 373.93161011 C-238.18308469 375.74509148 -238.18546436 377.55858198 -238.18530273 379.37207031 C-238.18747778 382.09716692 -238.20564454 384.82185033 -238.22460938 387.546875 C-238.25828712 397.89118354 -237.73783785 407.77983956 -236 418 C-235.86456787 418.84175781 -235.72913574 419.68351562 -235.58959961 420.55078125 C-227.98706653 465.25426397 -204.86541713 505.28210795 -173 537 C-172.08863281 537.93457031 -171.17726563 538.86914062 -170.23828125 539.83203125 C-164.16056188 546.04733985 -158.00742259 551.8230878 -151 557 C-150.39559082 557.44843262 -149.79118164 557.89686523 -149.16845703 558.35888672 C-139.1890993 565.71784417 -128.98581997 572.25270139 -118 578 C-117.33081543 578.35046387 -116.66163086 578.70092773 -115.97216797 579.06201172 C-62.79479336 606.68877232 6.98621294 619.38797379 65.54296875 601.19726562 C66.90903466 600.74412509 68.2717637 600.28082662 69.63134766 599.80859375 C72.50250896 598.82845705 75.39601004 597.93224056 78.29296875 597.03125 C126.92288267 581.67479882 171.97755895 552.9484539 202 511 C202.73605469 510.00871094 203.47210937 509.01742188 204.23046875 507.99609375 C237.4089931 462.01594408 251.29445723 404.2091812 242.41333008 348.10327148 C241.98396491 345.72460283 241.50667619 343.36334552 241 341 C240.82307617 340.15969238 240.64615234 339.31938477 240.46386719 338.45361328 C233.70113826 307.28549213 220.31472819 278.35888798 201 253 C200.54351074 252.39397949 200.08702148 251.78795898 199.61669922 251.16357422 C185.81977269 233.00428046 169.58077551 217.19586813 151 204 C150.0925 203.33097656 149.185 202.66195312 148.25 201.97265625 C145.87145083 200.24742569 143.45878362 198.60869254 141 197 C139.52080078 196.02933594 139.52080078 196.02933594 138.01171875 195.0390625 C104.62449599 173.79708934 67.06341828 162.43058278 28 158 C27.18265381 157.90356201 26.36530762 157.80712402 25.52319336 157.70776367 C-37.16611208 150.77793889 -105.40997496 170.65449184 -154 211 Z " fill="#808080" transform="translate(382,1)"/>
<path d="M0 0 C0.8344697 0.05369877 1.6689394 0.10739754 2.52869606 0.16272354 C9.14011211 0.60839568 15.73682854 1.19536011 22.3359375 1.79296875 C24.485008 1.98197703 26.63413888 2.17029973 28.7833252 2.35798645 C34.47743614 2.85695882 40.17073831 3.36463312 45.86391449 3.87414551 C51.73841522 4.39842815 57.61360179 4.91489522 63.48876953 5.43164062 C70.48896221 6.04761517 77.48912165 6.66393256 84.48898315 7.28366089 C97.62553256 8.44589515 110.76363897 9.58420717 123.90625 10.67578125 C125.33729061 10.79493521 126.76833106 10.91409104 128.19937134 11.0332489 C133.32312822 11.45927151 138.44700802 11.88367488 143.57147217 12.30111694 C146.89949752 12.57239382 150.22711253 12.84826373 153.5546875 13.125 C154.50468628 13.20063675 155.45468506 13.2762735 156.43347168 13.35420227 C157.28284302 13.42551865 158.13221436 13.49683502 159.00732422 13.5703125 C159.73732635 13.62977051 160.46732849 13.68922852 161.2194519 13.75048828 C163 14 163 14 165 15 C165.62878418 17.68873596 165.62878418 17.68873596 166.16992188 21.34985352 C166.27139778 22.01902896 166.37287369 22.6882044 166.47742462 23.37765789 C166.81636162 25.62689207 167.14242658 27.87781019 167.46875 30.12890625 C167.70684609 31.72446989 167.94579639 33.31990628 168.18554688 34.91522217 C168.69833757 38.33814746 169.20566773 41.76182076 169.70874023 45.18618774 C170.50066241 50.57558568 171.30455106 55.96314989 172.11132812 61.3503418 C172.38366715 63.16932676 172.65600602 64.98831174 172.92834473 66.80729675 C173.06372147 67.71130911 173.19909821 68.61532146 173.33857727 69.54672813 C173.75209443 72.31087517 174.16444858 75.07519362 174.57653809 77.83955383 C177.03905578 94.34579919 179.59462018 110.8367455 182.18716431 127.32300949 C182.69233393 130.53565495 183.19670439 133.74842587 183.70117188 136.96118164 C183.89215454 138.17676254 184.08313721 139.39234344 184.27990723 140.64476013 C184.65046332 143.00641346 185.02019839 145.36819579 185.38903809 147.7301178 C186.29926722 153.55766989 187.22233608 159.38266962 188.16796875 165.20458984 C188.53912833 167.52570562 188.91022456 169.84683153 189.28125 172.16796875 C189.45474976 173.21406815 189.62824951 174.26016754 189.80700684 175.33796692 C190.26366776 178.22114385 190.64998102 181.10211343 191 184 C191.19246056 185.3069281 191.19246056 185.3069281 191.3888092 186.64025879 C191.72508089 190.46885899 191.65257009 192.96780694 189.56625366 196.26780701 C187.47219138 198.66930511 185.26402353 200.83504936 182.93359375 203.0078125 C182.10674576 203.81813934 181.27989777 204.62846619 180.42799377 205.46334839 C177.78713204 208.04183955 175.11405782 210.58363161 172.4375 213.125 C169.79397982 215.68090968 167.1574554 218.24386556 164.52198792 220.80807495 C162.88324497 222.39740921 161.23850484 223.98059196 159.58677673 225.556427 C155.35410229 229.60898228 151.36967609 233.7544893 147.55723572 238.20455933 C145.45470617 240.62870554 143.21732635 242.8952052 140.94140625 245.15625 C140.06162109 246.0328125 139.18183594 246.909375 138.27539062 247.8125 C137.38013672 248.699375 136.48488281 249.58625 135.5625 250.5 C134.64017578 251.4178125 133.71785156 252.335625 132.76757812 253.28125 C130.51400101 255.52315055 128.25810925 257.762666 126 260 C123.49751155 257.49751155 123.50364794 256.14974382 122.96948242 252.68017578 C122.79088684 251.5468985 122.61229126 250.41362122 122.42828369 249.2460022 C122.23925476 247.9917746 122.05022583 246.737547 121.85546875 245.4453125 C121.64791005 244.10807386 121.43961828 242.77094883 121.23065186 241.43392944 C120.6598794 237.76843383 120.09932732 234.10143756 119.54044724 230.43411255 C118.94828759 226.55998313 118.3468612 222.68729328 117.74633789 218.81445312 C116.71080861 212.12867046 115.68098147 205.442029 114.65429688 198.75488281 C113.08124174 188.51204104 111.49268698 178.27163333 109.9011898 168.03164291 C107.60773902 153.27375598 105.31606972 138.51558542 103.03495026 123.7557869 C102.78495434 122.13891915 102.53468635 120.52209345 102.28411102 118.9053154 C101.61697514 114.60000492 100.95490126 110.29399005 100.30210495 105.98648071 C100.00180812 104.01188922 99.69661255 102.03804477 99.39138794 100.06420898 C99.20752533 98.84096924 99.02366272 97.61772949 98.83422852 96.35742188 C98.67253677 95.29519409 98.51084503 94.23296631 98.34425354 93.1385498 C97.97112536 89.73675071 97.94253624 86.41950601 98 83 C97.34725098 83.02610352 96.69450195 83.05220703 96.02197266 83.07910156 C85.22703188 83.30175053 74.58638125 82.14724674 63.85580444 81.09173584 C57.84670853 80.50177927 51.83558424 79.93348722 45.82421875 79.3671875 C44.59260513 79.2510611 43.36099152 79.13493469 42.09205627 79.01528931 C29.46724259 77.83680333 16.83020326 76.8393683 4.1875 75.875 C-12.51409233 74.59762491 -29.19754841 73.21671331 -45.875 71.65625 C-53.78567139 70.9175771 -61.70279343 70.26376318 -69.6237793 69.64599609 C-74.1309178 69.28496864 -78.55041349 68.84121536 -83 68 C-78.98878333 63.18284878 -74.78739891 58.66086108 -70.32421875 54.26171875 C-69.71359085 53.65487747 -69.10296295 53.04803619 -68.47383118 52.42280579 C-66.54749227 50.50856078 -64.61791543 48.59763339 -62.6875 46.6875 C-60.12605066 44.15259745 -57.56790438 41.61442782 -55.01171875 39.07421875 C-54.42323654 38.49403488 -53.83475433 37.91385101 -53.22843933 37.31608582 C-50.24530515 34.43967024 -50.24530515 34.43967024 -48 31 C-47.34 31 -46.68 31 -46 31 C-45.78351807 30.46987305 -45.56703613 29.93974609 -45.34399414 29.39355469 C-42.31585774 24.00066653 -37.50716081 19.60810457 -33.24731445 15.16259766 C-32.04976527 13.89703711 -30.86957396 12.61480162 -29.70825195 11.31591797 C-28.01194435 9.42221921 -26.2635028 7.59285923 -24.49609375 5.765625 C-23.99951767 5.18758118 -23.50294159 4.60953735 -22.99131775 4.01397705 C-16.78650261 -2.13061652 -8.03642316 -0.54066683 0 0 Z " fill="#808080" transform="translate(368,214)"/>
<path d="M0 0 C0.65135925 0.01301651 1.30271851 0.02603302 1.97381592 0.03944397 C10.52944938 0.28559089 19.05224423 1.14821597 27.5682373 1.9630127 C33.56999763 2.53623078 39.57402174 3.08477403 45.578125 3.6328125 C46.26132561 3.69536854 46.94452621 3.75792458 47.64842987 3.82237625 C62.41024278 5.17128098 77.18114772 6.4088178 91.953125 7.640625 C93.75470188 7.79102139 93.75470188 7.79102139 95.59267426 7.9444561 C106.65022527 8.8674094 117.70794102 9.78835413 128.76623535 10.70236206 C134.6608312 11.18958543 140.55517271 11.6797852 146.44935608 12.17197227 C148.65814642 12.35576544 150.86703878 12.53833696 153.07603455 12.71964455 C156.12483958 12.96994252 159.17328507 13.22425148 162.22167969 13.47949219 C163.11996113 13.55220809 164.01824257 13.62492399 164.94374466 13.69984341 C165.76851681 13.7697099 166.59328896 13.8395764 167.4430542 13.91156006 C168.15568798 13.97051327 168.86832176 14.02946648 169.60255051 14.09020615 C171.66558503 14.34683596 173.60496893 14.79457648 175.609375 15.33984375 C181.54537462 53.28086366 187.4636141 91.22447379 193.26144028 129.18688965 C193.6042702 131.43142228 193.94733354 133.67591914 194.29043579 135.92041016 C194.51176009 137.3688119 194.73306364 138.81721681 194.9543457 140.265625 C195.06213191 140.97100277 195.16991812 141.67638054 195.28097057 142.40313339 C195.80394202 145.82869416 196.32467356 149.25456894 196.84049988 152.68121338 C197.82351407 159.20645094 198.82771134 165.72667525 199.87890625 172.24121094 C200.07597168 173.49054413 200.27303711 174.73987732 200.47607422 176.02706909 C200.84640039 178.3740191 201.22636361 180.71947648 201.61767578 183.0630188 C201.77864746 184.09780365 201.93961914 185.1325885 202.10546875 186.19873047 C202.32481079 187.55017654 202.32481079 187.55017654 202.54858398 188.92892456 C202.63465492 192.34242359 201.48801218 194.3194909 199.30004883 196.86035156 C198.81044678 197.33311523 198.32084473 197.80587891 197.81640625 198.29296875 C197.26791016 198.83050781 196.71941406 199.36804688 196.15429688 199.921875 C195.58259766 200.47230469 195.01089844 201.02273438 194.421875 201.58984375 C190.96180981 204.94089871 187.59891954 208.301371 184.47412109 211.97070312 C180.29677219 216.77038748 175.82811021 221.24694695 171.31640625 225.73046875 C170.44795578 226.59750427 169.57950531 227.46453979 168.68473816 228.35784912 C165.93280889 231.10422401 163.17741221 233.84708934 160.421875 236.58984375 C158.5603148 238.44638191 156.69898446 240.30315058 154.83789062 242.16015625 C150.74799387 246.24026961 146.65591353 250.31817798 142.56184387 254.394104 C140.57538187 256.37371972 138.59185431 258.35624026 136.609375 260.33984375 C134.30795857 256.8877191 133.99675232 254.62518293 133.36352539 250.53857422 C133.19906937 249.49731133 133.19906937 249.49731133 133.03129101 248.43501282 C132.66601374 246.11007923 132.31151578 243.78363299 131.95703125 241.45703125 C131.69891302 239.79866189 131.44017073 238.14038956 131.18084717 236.48220825 C130.48109934 231.99479127 129.79087427 227.50595575 129.10248184 223.01678467 C128.52858398 219.282455 127.9490116 215.54901583 127.36934185 211.81557846 C122.94771724 183.33386878 118.62482192 154.83665894 114.37583733 126.32868767 C113.93828033 123.39351294 113.4996178 120.4585038 113.06095123 117.52349472 C112.76629997 115.54794017 112.47365161 113.57208721 112.18109131 111.59622192 C111.2342708 105.25683846 110.21105638 98.95003483 108.98368835 92.65844727 C108.47358243 89.49870589 108.46748707 86.53232226 108.609375 83.33984375 C107.97247742 83.35130936 107.33557983 83.36277496 106.67938232 83.37458801 C99.09341235 83.44986286 91.61946422 82.97991676 84.0625 82.3515625 C82.13189728 82.19576469 82.13189728 82.19576469 80.16229248 82.03681946 C77.43901734 81.81676391 74.71600628 81.59375604 71.99316406 81.3684082 C68.60680883 81.08823925 65.22001714 80.81388753 61.8330183 80.54162312 C48.04957101 79.43206433 34.28014854 78.23200061 20.51953125 76.86328125 C8.84395266 75.70477568 -2.83772542 74.71382639 -14.53515625 73.8046875 C-16.16480675 73.67734362 -17.7944556 73.54997854 -19.42410278 73.42259216 C-26.05773939 72.90532902 -32.69157448 72.3910004 -39.32641602 71.8894043 C-43.46707422 71.57601429 -47.60696934 71.25385605 -51.7464962 70.92587471 C-53.30480027 70.80413033 -54.86336917 70.68572621 -56.42218971 70.57078362 C-58.56971791 70.41218339 -60.71609089 70.24246732 -62.86254883 70.07006836 C-64.68753654 69.93041908 -64.68753654 69.93041908 -66.5493927 69.78794861 C-69.390625 69.33984375 -69.390625 69.33984375 -71.390625 67.33984375 C-70.88200928 66.83646484 -70.37339355 66.33308594 -69.84936523 65.81445312 C-67.50621772 63.49232397 -65.16715898 61.16611605 -62.828125 58.83984375 C-62.02826172 58.04835938 -61.22839844 57.256875 -60.40429688 56.44140625 C-56.84388613 52.89552779 -53.34218354 49.35296143 -50.08203125 45.52734375 C-44.5187537 39.05312488 -38.28443187 33.17986459 -32.21533203 27.18505859 C-21.8247987 16.97103595 -21.8247987 16.97103595 -12.484375 5.80859375 C-8.74077832 1.18415079 -5.95534084 -0.12087573 0 0 Z " fill="#808080" transform="translate(228.390625,341.66015625)"/>
</svg>
